<?xml version="1.0" encoding="utf-8"?>
<!-- Generator: Adobe Illustrator 26.1.0, SVG Export Plug-In . SVG Version: 6.00 Build 0)  -->
<svg version="1.1" id="Layer_1" xmlns="http://www.w3.org/2000/svg" xmlns:xlink="http://www.w3.org/1999/xlink" x="0px" y="0px"
	 viewBox="0 0 180 30" style="enable-background:new 0 0 180 30;" xml:space="preserve">
<style type="text/css">
	.st0{fill:#36BEDD;}
</style>
<path d="M162.5,14.5c3.6,0.3,15,0.1,15.9-0.2c0-0.3-0.1-0.7-0.1-1c-0.3-1.2-0.9-2.4-1.9-3.3c-0.9-0.9-2.1-1.6-3.4-1.9
	c-1.7-0.5-3.6-0.4-5.3,0.1c-1.5,0.4-2.8,1.2-3.7,2.3S162.6,13,162.5,14.5z M179.9,16h-17.4c-0.1,1.6,0.5,3.1,1.5,4.4
	c0.9,1,2.1,1.8,3.5,2.3c1.3,0.5,2.8,0.6,4.2,0.4c1-0.1,2.1-0.4,3-0.9s1.7-1.2,2.4-2c0.2-0.3,0.5-0.7,0.8-1.1l1.2,0.7
	c-0.5,1.2-1.4,2.2-2.5,2.9c-1.9,1.2-4.1,1.8-6.4,1.8c-2.3-0.1-4.4-0.8-6.2-2.2c-1.2-1-2.1-2.3-2.5-3.8c-0.6-2.1-0.6-4.3,0-6.3
	c0.6-1.9,1.9-3.5,3.6-4.5c3.3-2.1,8.9-1.9,11.7,0.4c1.2,0.9,2.1,2.1,2.6,3.5C179.9,13.1,180.1,14.6,179.9,16"/>
<path d="M83.5,15.5c0,3,1.1,5.3,4,6.7c1.4,0.8,3.1,1.1,4.7,1s3.2-0.7,4.5-1.6c0.8-0.5,1.4-1.2,1.9-1.9c0.5-0.8,0.8-1.6,0.8-2.6
	c0.1-1,0.1-2,0-3c-0.1-1.2-0.6-2.4-1.4-3.4s-1.8-1.8-3-2.2c-1.2-0.5-2.5-0.7-3.8-0.6c-1,0-2.1,0.1-3,0.5c-1,0.4-1.8,0.9-2.6,1.7
	c-0.7,0.7-1.3,1.6-1.7,2.5C83.6,13.5,83.4,14.5,83.5,15.5z M101,15.5c0.1,1.4-0.1,2.8-0.7,4.1c-0.5,1.2-1.3,2.2-2.3,3
	s-2.2,1.4-3.4,1.7c-2.5,0.7-5.3,0.5-7.6-0.6c-3.1-1.4-4.6-4-4.8-7.2c-0.1-1.5,0-3,0.5-4.4c0.5-1.2,1.2-2.4,2.2-3.2
	c1-0.9,2.2-1.5,3.5-1.9c1.5-0.5,3-0.6,4.6-0.4c1.5,0.2,3,0.7,4.3,1.5c1.1,0.7,2,1.6,2.7,2.7s1.1,2.3,1.1,3.6
	C101,14.7,101,15.1,101,15.5z"/>
<path d="M121.1,9.1c-0.5-0.6-1.1-1.1-1.8-1.5c-1.9-1.1-4.2-1.5-6.4-1.2c-1.3,0.1-2.5,0.5-3.6,1.2c-1.1,0.6-2,1.5-2.8,2.5
	c-0.2,0.2-0.6,0.7-0.8,0.9l0.2-0.1v-4h-1.5V24h1.5v-8.9c0.1-1.7,0.7-3.4,1.9-4.7c1.2-1.3,2.8-2.2,4.5-2.6s3.6-0.2,5.2,0.5
	c0.8,0.3,1.6,0.8,2.1,1.4c0.6,0.6,1,1.4,1.2,2.3c0.2,0.7,0.3,1.4,0.3,2.2V24h1.5V12.7C122.5,11.4,122,10.1,121.1,9.1"/>
<path d="M156.3,9.1c-0.5-0.6-1.1-1.1-1.8-1.5c-1.9-1.1-4.2-1.5-6.4-1.2c-1.3,0.1-2.5,0.5-3.6,1.2c-1.1,0.6-2,1.5-2.8,2.5
	c-0.2,0.2-0.6,0.7-0.8,0.9l0.2-0.1v-4h-1.5V24h1.5v-8.9c0.1-1.7,0.7-3.4,1.9-4.7s2.8-2.2,4.5-2.6s3.6-0.2,5.2,0.5
	c0.8,0.3,1.5,0.8,2.1,1.4c0.6,0.6,1,1.4,1.2,2.3c0.2,0.7,0.3,1.5,0.3,2.2V24h1.5V12.7C157.7,11.4,157.2,10.1,156.3,9.1z"/>
<path d="M128.7,0h-1.5v24h1.5V0z"/>
<path d="M134.9,6.8h-1.5V24h1.5V6.8z"/>
<path d="M135.5,3.3c0,0.3-0.1,0.5-0.2,0.7c-0.1,0.2-0.4,0.4-0.6,0.5c-0.2,0.1-0.5,0.1-0.8,0.1s-0.5-0.2-0.7-0.4
	c-0.2-0.2-0.3-0.4-0.4-0.7c-0.1-0.3,0-0.5,0.1-0.8c0.1-0.2,0.3-0.4,0.5-0.6c0.2-0.1,0.5-0.2,0.7-0.2c0.3,0,0.7,0.1,0.9,0.4
	C135.3,2.7,135.4,3,135.5,3.3z"/>
<path d="M44.1,13.9l0.1-0.3c0.4-1,1.2-1.9,2.1-2.5c1-0.6,2.1-0.9,3.2-0.9h0.1c1.1,0,2.3,0.3,3.2,0.9c0.9,0.6,1.7,1.5,2.1,2.6L55,14
	L44.1,13.9z M49.7,6.5c-2.2,0-4.3,0.6-6.2,1.7c-1.2,0.8-2.2,1.9-2.9,3.2s-1.1,2.7-1.1,4.2s0.4,2.9,1.1,4.2c0.7,1.3,1.7,2.4,3,3.2
	c1.5,0.9,3.1,1.4,4.8,1.6s3.4,0,5.1-0.6c1.8-0.5,3.4-1.5,4.6-3l-3.4-2.3C52,21,49.6,21.5,47,20.4c-0.7-0.3-1.4-0.7-1.9-1.3
	c-0.5-0.6-0.9-1.3-1-2.1L44,16.7h15.5c0.2-1.4,0.1-2.8-0.3-4.1c-0.4-1.3-1.2-2.5-2.2-3.4C54.9,7.4,52.4,6.5,49.7,6.5"/>
<path d="M4.7,13.6c0.5-2,2.8-3.4,5.3-3.4c1.1-0.1,2.3,0.2,3.2,0.9c1,0.6,1.7,1.5,2.1,2.6l0.1,0.3H4.7V13.6z M8,20.6
	c-0.8-0.2-1.6-0.7-2.2-1.3c-0.6-0.6-1-1.4-1.3-2.2l-0.1-0.3H20c0.5-4.6-1.7-8.2-6-9.6c-1.3-0.4-2.6-0.6-3.9-0.6
	c-2.1,0-4.2,0.6-6,1.7C2.7,9,1.7,10.1,1,11.4s-1,2.8-1,4.2s0.3,2.9,1.1,4.1c0.7,1.3,1.8,2.3,3,3.1c4.2,2.4,8.5,2.3,12.8-0.4
	c0.5-0.3,0.9-0.7,1.3-1.1c0.1-0.1,0.3-0.3,0.4-0.4l-3.4-2.3C13,20.8,10.6,21.4,8,20.6"/>
<path d="M71,20.7c-1,0-2-0.3-2.8-0.8s-1.5-1.2-2-2.1c-0.4-0.8-0.6-1.8-0.6-2.7c0.1-0.9,0.4-1.8,1-2.6c0.5-0.7,1.2-1.2,2-1.6
	c0.8-0.4,1.6-0.6,2.5-0.6c0.9-0.1,1.8,0.1,2.7,0.4c0.8,0.3,1.6,0.8,2.2,1.5l0.5,0.6l2.8-3c-0.1-0.2-0.3-0.3-0.5-0.5l-0.1-0.1
	c-0.3-0.3-0.7-0.6-1-0.8c-1.9-1.2-4-1.8-6.3-1.9c-1.8,0-3.6,0.4-5.2,1.2c-1.5,0.7-2.8,1.7-3.7,3.1s-1.3,3-1.2,4.6
	c-0.1,1.6,0.3,3.2,1.2,4.6s2.1,2.5,3.6,3.2c2.5,1.2,5.3,1.5,8,0.8c2.3-0.4,4.3-1.7,5.6-3.6l-3.4-2.3c-0.6,0.9-1.5,1.5-2.5,2
	C73.2,20.7,72.1,20.9,71,20.7"/>
<path class="st0" d="M20.1,7.1l7.3,8.2L19.7,24h5.2l4.6-5.1l3.2-3.6c-0.8-0.9-2.1-2.4-3.4-3.8l-3.9-4.3L20.1,7.1L20.1,7.1z"/>
<path d="M40,23.5l-5.9-6.6l-1.8,2l-0.8,0.9c0.9,1,3.1,3.5,4.8,5.5l4.2,4.7h5.2L40,23.5"/>
<path d="M34.1,13.7L40,7.1h-5.2l-3.3,3.7l0.6,0.7L34.1,13.7"/>
</svg>
