<?xml version="1.0" encoding="utf-8"?>
<!-- Generator: Adobe Illustrator 28.3.0, SVG Export Plug-In . SVG Version: 6.00 Build 0)  -->
<svg version="1.1" id="Layer_1" xmlns="http://www.w3.org/2000/svg" xmlns:xlink="http://www.w3.org/1999/xlink" x="0px" y="0px"
	 viewBox="0 0 706.2 352.6" style="enable-background:new 0 0 706.2 352.6;" xml:space="preserve">
<style type="text/css">
	.st0{fill:#FFFFFF;}
	.st1{fill:#989898;}
</style>
<g id="Bottom_Line_00000033348532979840194800000008936733597896879549_">
	
		<rect id="Bottom_Line_00000022546499415066376640000018328532908957135018_" x="13.8" y="321.5" class="st0" width="680" height="14.4"/>
</g>
<g id="Top_Line_00000127030685956470240560000015265574190164211369_">
	
		<rect id="Top_Line_00000026142211452796036540000007960365647339999118_" x="13.8" y="13.5" class="st0" width="680" height="14.4"/>
</g>
<g id="Chevrons_00000114784777027388654740000003054312110568748457_">
	<g id="Chevron_1_00000049899910486594886830000010992101697852028835_">
		<path class="st1" d="M111.8,175 M13.8,45.5h75l98,129.5l-98,129h-75l98-129L13.8,45.5h75l98,129.5 M186.8,175 M88.8,304h-75
			l98-129"/>
	</g>
	<g id="Chevron_2_00000105404469094070274830000009265676716945111213_">
		<path class="st1" d="M213.4,175 M115.4,45.5h75l98,129.5l-98,129h-75l98-129L115.4,45.5h75l98,129.5 M288.4,175 M190.4,304h-75
			l98-129"/>
	</g>
	<g id="Chevron_3_00000109711242692357584990000008936087466676535976_">
		<path class="st1" d="M315,175 M217,45.5h75L390,175l-98,129h-75l98-129L217,45.5h75L390,175 M390,175 M292,304h-75l98-129"/>
	</g>
	<g id="Chevron_4_00000011030633204196157880000012175075865258910120_">
		<path class="st1" d="M416.6,175 M318.6,45.5h75l98,129.5l-98,129h-75l98-129L318.6,45.5h75l98,129.5 M491.6,175 M393.6,304h-75
			l98-129"/>
	</g>
	<g id="Chevron_5_00000132084957446834036780000014836504646971473827_">
		<path class="st1" d="M518.2,175 M420.2,45.5h75l98,129.5l-98,129h-75l98-129L420.2,45.5h75l98,129.5 M593.2,175 M495.2,304h-75
			l98-129"/>
	</g>
	<g id="Chevron_6_00000039829544783818208010000004512504257328267917_">
		<path class="st1" d="M619.8,175 M521.8,45.5h75l98,129.5l-98,129h-75l98-129L521.8,45.5h75l98,129.5 M694.8,175 M596.8,304h-75
			l98-129"/>
	</g>
</g>
<g id="Road_to_DX_Text_00000157989892824514978430000002903938598425974205_">
	<path class="st0" d="M13.7,252.9V96.1h30.9c11.7,0,20.2,2.5,25.4,7.4c5.3,4.9,8.1,13.1,8.5,24.4c0.2,4.8,0.3,9.1,0.4,13.1
		c0.1,4,0.1,7.8,0,11.7c-0.1,3.8-0.2,7.9-0.4,12.1c-0.3,7.4-1.5,13.4-3.8,18c-2.3,4.6-5.8,8-10.7,10.2l17.1,60H58.6l-14.7-56.4h-9
		v56.4H13.7z M34.9,177.7h9.6c4.2,0,7.4-1,9.5-3c2.1-2,3.2-5,3.4-9c0.2-4.2,0.3-8.5,0.4-12.9c0.1-4.4,0.1-8.8,0-13.2
		c-0.1-4.4-0.2-8.7-0.4-12.9c-0.2-4-1.3-7-3.4-8.9c-2.1-2-5.2-2.9-9.4-2.9h-9.7V177.7z"/>
	<path class="st0" d="M124.6,254.5c-11.7,0-20.2-2.5-25.4-7.5c-5.2-5-8-13.3-8.2-24.9c-0.1-7.8-0.2-15.7-0.3-23.7
		c-0.1-8-0.1-16-0.1-24c0-8,0-16,0.1-23.9c0.1-7.9,0.2-15.9,0.3-23.8c0.3-11.6,3-19.8,8.2-24.8c5.2-5,13.7-7.5,25.4-7.5
		c11.8,0,20.3,2.5,25.4,7.5c5.1,5,7.8,13.3,8.1,24.8c0.2,8,0.3,15.9,0.4,23.9c0.1,8,0.1,15.9,0.1,23.9s0,15.9-0.1,23.9
		c-0.1,8-0.2,15.9-0.4,23.7c-0.3,11.6-3,19.9-8.1,24.9C144.9,252,136.4,254.5,124.6,254.5z M124.6,237c4.2,0,7.4-0.9,9.3-2.7
		c2-1.8,3-4.6,3-8.5c0.3-8.1,0.4-16.5,0.5-25.2c0.1-8.7,0.1-17.5,0.1-26.4c0-8.9-0.1-17.6-0.2-26.3c-0.1-8.6-0.3-16.9-0.5-24.9
		c-0.1-3.9-1.1-6.7-3.1-8.4c-2-1.8-5.1-2.6-9.2-2.6c-4.1,0-7.1,0.9-9.1,2.6c-2,1.8-3.1,4.6-3.2,8.4c-0.3,8-0.5,16.3-0.6,24.9
		c-0.1,8.6-0.2,17.4-0.2,26.3c0,8.9,0.1,17.7,0.2,26.4c0.1,8.7,0.3,17.1,0.6,25.2c0.1,3.9,1.2,6.7,3.2,8.5
		C117.5,236.1,120.6,237,124.6,237z"/>
	<path class="st0" d="M165.4,252.9l19.2-156.8h35.3l19.2,156.8h-21.7l-3.7-39.1h-22.9l-3.6,39.1H165.4z M192.8,194.9h18.8l-3.2-34.4
		l-3.4-45.6h-5.5l-3.3,45.7L192.8,194.9z"/>
	<path class="st0" d="M248.6,252.9V96.1H281c11.9,0,20.5,2.6,25.7,7.7c5.3,5.1,8,13.6,8.3,25.4c0.2,10.8,0.3,21,0.4,30.7
		c0.1,9.7,0.1,19.4,0,29.1c-0.1,9.7-0.2,19.9-0.4,30.6c-0.3,11.9-3,20.4-8.3,25.6c-5.3,5.2-13.9,7.7-25.8,7.7H248.6z M269.8,234.1
		h11.2c4.3,0,7.5-1,9.6-3c2.1-2,3.2-5,3.2-9.1c0.2-8,0.3-15.9,0.4-23.8c0.1-7.9,0.1-15.8,0.1-23.8s0-15.9-0.1-23.8
		c-0.1-7.9-0.2-15.9-0.4-23.9c-0.1-4-1.1-7-3.2-8.9c-2.1-2-5.3-2.9-9.5-2.9h-11.3V234.1z"/>
	<path class="st0" d="M381.4,252.9v-138h-22.6V96.1h66.3v18.8h-22.5v138H381.4z"/>
	<path class="st0" d="M463.5,254.5c-11.7,0-20.2-2.5-25.4-7.5c-5.2-5-8-13.3-8.2-24.9c-0.1-7.8-0.2-15.7-0.3-23.7
		c-0.1-8-0.1-16-0.1-24c0-8,0-16,0.1-23.9c0.1-7.9,0.2-15.9,0.3-23.8c0.3-11.6,3-19.8,8.2-24.8c5.2-5,13.7-7.5,25.4-7.5
		c11.8,0,20.3,2.5,25.4,7.5c5.1,5,7.8,13.3,8.1,24.8c0.2,8,0.3,15.9,0.4,23.9c0.1,8,0.1,15.9,0.1,23.9s0,15.9-0.1,23.9
		c-0.1,8-0.2,15.9-0.4,23.7c-0.3,11.6-3,19.9-8.1,24.9C483.8,252,475.3,254.5,463.5,254.5z M463.5,237c4.2,0,7.4-0.9,9.3-2.7
		c2-1.8,3-4.6,3-8.5c0.3-8.1,0.4-16.5,0.5-25.2c0.1-8.7,0.1-17.5,0.1-26.4c0-8.9-0.1-17.6-0.2-26.3c-0.1-8.6-0.3-16.9-0.5-24.9
		c-0.1-3.9-1.1-6.7-3.1-8.4c-2-1.8-5.1-2.6-9.2-2.6c-4.1,0-7.1,0.9-9.1,2.6c-2,1.8-3.1,4.6-3.2,8.4c-0.3,8-0.5,16.3-0.6,24.9
		c-0.1,8.6-0.2,17.4-0.2,26.3c0,8.9,0.1,17.7,0.2,26.4c0.1,8.7,0.3,17.1,0.6,25.2c0.1,3.9,1.2,6.7,3.2,8.5
		C456.4,236.1,459.4,237,463.5,237z"/>
	<path class="st0" d="M550.9,252.9V96.1h32.4c11.9,0,20.5,2.6,25.7,7.7c5.3,5.1,8,13.6,8.3,25.4c0.2,10.8,0.3,21,0.4,30.7
		c0.1,9.7,0.1,19.4,0,29.1c-0.1,9.7-0.2,19.9-0.4,30.6c-0.3,11.9-3,20.4-8.3,25.6c-5.3,5.2-13.9,7.7-25.8,7.7H550.9z M572.1,234.1
		h11.2c4.3,0,7.5-1,9.6-3c2.1-2,3.2-5,3.2-9.1c0.2-8,0.3-15.9,0.4-23.8c0.1-7.9,0.1-15.8,0.1-23.8s0-15.9-0.1-23.8
		c-0.1-7.9-0.2-15.9-0.4-23.9c-0.1-4-1.1-7-3.2-8.9c-2.1-2-5.3-2.9-9.5-2.9h-11.3V234.1z"/>
	<path class="st0" d="M622.5,252.9l21.2-80.8l-20.4-76h20.8l8.5,36.8l4,30.7h3.9l3.8-30.7l8.3-36.8h20.8l-19.6,76.7l20.3,80.1h-20.7
		l-8.9-38.7l-4-31.8h-3.9l-4.1,31.8l-9.2,38.7H622.5z"/>
</g>
</svg>
