<?xml version="1.0" encoding="utf-8"?>
<!-- Generator: Adobe Illustrator 28.3.0, SVG Export Plug-In . SVG Version: 6.00 Build 0)  -->
<svg version="1.1" id="Layer_1" xmlns="http://www.w3.org/2000/svg" xmlns:xlink="http://www.w3.org/1999/xlink" x="0px" y="0px"
	 viewBox="0 0 711 423.8" style="enable-background:new 0 0 711 423.8;" xml:space="preserve">
<style type="text/css">
	.st0{fill:#FFFFFF;}
	.st1{opacity:0.5;}
	.st2{fill:#999999;}
</style>
<g id="Bottom_Line_00000033348532979840194800000008936733597896879549_">
	
		<rect id="Bottom_Line_00000022546499415066376640000018328532908957135018_" x="14.8" y="323.9" class="st0" width="680" height="14.4"/>
</g>
<g id="Top_Line_00000127030685956470240560000015265574190164211369_">
	
		<rect id="Top_Line_00000026142211452796036540000007960365647339999118_" x="14.8" y="15.9" class="st0" width="680" height="14.4"/>
</g>
<g id="Chevrons_00000114784777027388654740000003054312110568748457_" class="st1">
	<g id="Chevron_1_00000049899910486594886830000010992101697852028835_">
		<path class="st2" d="M14.8,47.9h75l98,129.5l-98,129h-75l98-129L14.8,47.9h75l98,129.5 M89.8,306.4h-75l98-129"/>
	</g>
	<g id="Chevron_2_00000105404469094070274830000009265676716945111213_">
		<path class="st2" d="M116.4,47.9h75l98,129.5l-98,129h-75l98-129L116.4,47.9h75l98,129.5 M191.4,306.4h-75l98-129"/>
	</g>
	<g id="Chevron_3_00000109711242692357584990000008936087466676535976_">
		<path class="st2" d="M218,47.9h75l98,129.5l-98,129h-75l98-129L218,47.9h75l98,129.5 M293,306.4h-75l98-129"/>
	</g>
	<g id="Chevron_4_00000011030633204196157880000012175075865258910120_">
		<path class="st2" d="M319.6,47.9h75l98,129.5l-98,129h-75l98-129L319.6,47.9h75l98,129.5 M394.6,306.4h-75l98-129"/>
	</g>
	<g id="Chevron_5_00000132084957446834036780000014836504646971473827_">
		<path class="st2" d="M421.2,47.9h75l98,129.5l-98,129h-75l98-129L421.2,47.9h75l98,129.5 M496.2,306.4h-75l98-129"/>
	</g>
	<g id="Chevron_6_00000039829544783818208010000004512504257328267917_">
		<path class="st2" d="M522.8,47.9h75l98,129.5l-98,129h-75l98-129L522.8,47.9h75l98,129.5 M597.8,306.4h-75l98-129"/>
	</g>
</g>
<g id="Road_to_DX_Text_00000157989892824514978430000002903938598425974205_">
	<path class="st0" d="M14.7,255.3V98.5h30.9c11.7,0,20.2,2.5,25.4,7.4c5.3,4.9,8.1,13.1,8.5,24.4c0.2,4.8,0.3,9.1,0.4,13.1
		s0.1,7.8,0,11.7c-0.1,3.8-0.2,7.9-0.4,12.1c-0.3,7.4-1.5,13.4-3.8,18s-5.8,8-10.7,10.2l17.1,60H59.6L44.9,199h-9v56.4L14.7,255.3
		L14.7,255.3z M35.9,180.2h9.6c4.2,0,7.4-1,9.5-3s3.2-5,3.4-9c0.2-4.2,0.3-8.5,0.4-12.9c0.1-4.4,0.1-8.8,0-13.2s-0.2-8.7-0.4-12.9
		c-0.2-4-1.3-7-3.4-8.9c-2.1-2-5.2-2.9-9.4-2.9h-9.7C35.9,117.4,35.9,180.2,35.9,180.2z"/>
	<path class="st0" d="M125.7,257c-11.7,0-20.2-2.5-25.4-7.5c-5.2-5-8-13.3-8.2-24.9c-0.1-7.8-0.2-15.7-0.3-23.7
		c-0.1-8-0.1-16-0.1-24s0-16,0.1-23.9s0.2-15.9,0.3-23.8c0.3-11.6,3-19.8,8.2-24.8s13.7-7.5,25.4-7.5c11.8,0,20.3,2.5,25.4,7.5
		c5.1,5,7.8,13.3,8.1,24.8c0.2,8,0.3,15.9,0.4,23.9c0.1,8,0.1,15.9,0.1,23.9s0,15.9-0.1,23.9s-0.2,15.9-0.4,23.7
		c-0.3,11.6-3,19.9-8.1,24.9C146,254.5,137.5,257,125.7,257z M125.7,239.5c4.2,0,7.4-0.9,9.3-2.7c2-1.8,3-4.6,3-8.5
		c0.3-8.1,0.4-16.5,0.5-25.2s0.1-17.5,0.1-26.4s-0.1-17.6-0.2-26.3c-0.1-8.6-0.3-16.9-0.5-24.9c-0.1-3.9-1.1-6.7-3.1-8.4
		c-2-1.8-5.1-2.6-9.2-2.6c-4.1,0-7.1,0.9-9.1,2.6c-2,1.8-3.1,4.6-3.2,8.4c-0.3,8-0.5,16.3-0.6,24.9s-0.2,17.4-0.2,26.3
		c0,8.9,0.1,17.7,0.2,26.4s0.3,17.1,0.6,25.2c0.1,3.9,1.2,6.7,3.2,8.5C118.6,238.6,121.6,239.5,125.7,239.5z"/>
	<path class="st0" d="M166.4,255.3l19.2-156.8h35.3l19.2,156.8h-21.7l-3.7-39.1h-22.9l-3.6,39.1L166.4,255.3L166.4,255.3z
		 M193.9,197.3h18.8l-3.2-34.4l-3.4-45.6h-5.5l-3.3,45.7L193.9,197.3z"/>
	<path class="st0" d="M249.6,255.3V98.5H282c11.9,0,20.5,2.6,25.7,7.7c5.3,5.1,8,13.6,8.3,25.4c0.2,10.8,0.3,21,0.4,30.7
		s0.1,19.4,0,29.1c-0.1,9.7-0.2,19.9-0.4,30.6c-0.3,11.9-3,20.4-8.3,25.6c-5.3,5.2-13.9,7.7-25.8,7.7H249.6z M270.8,236.5H282
		c4.3,0,7.5-1,9.6-3s3.2-5,3.2-9.1c0.2-8,0.3-15.9,0.4-23.8c0.1-7.9,0.1-15.8,0.1-23.8s0-15.9-0.1-23.8c-0.1-7.9-0.2-15.9-0.4-23.9
		c-0.1-4-1.1-7-3.2-8.9c-2.1-2-5.3-2.9-9.5-2.9h-11.3L270.8,236.5L270.8,236.5z"/>
	<path class="st0" d="M382.4,255.3v-138h-22.6V98.5h66.3v18.8h-22.5v138H382.4z"/>
	<path class="st0" d="M464.5,257c-11.7,0-20.2-2.5-25.4-7.5c-5.2-5-8-13.3-8.2-24.9c-0.1-7.8-0.2-15.7-0.3-23.7
		c-0.1-8-0.1-16-0.1-24s0-16,0.1-23.9s0.2-15.9,0.3-23.8c0.3-11.6,3-19.8,8.2-24.8s13.7-7.5,25.4-7.5c11.8,0,20.3,2.5,25.4,7.5
		s7.8,13.3,8.1,24.8c0.2,8,0.3,15.9,0.4,23.9s0.1,15.9,0.1,23.9s0,15.9-0.1,23.9s-0.2,15.9-0.4,23.7c-0.3,11.6-3,19.9-8.1,24.9
		C484.8,254.5,476.4,257,464.5,257z M464.5,239.5c4.2,0,7.4-0.9,9.3-2.7c2-1.8,3-4.6,3-8.5c0.3-8.1,0.4-16.5,0.5-25.2
		s0.1-17.5,0.1-26.4s-0.1-17.6-0.2-26.3c-0.1-8.6-0.3-16.9-0.5-24.9c-0.1-3.9-1.1-6.7-3.1-8.4c-2-1.8-5.1-2.6-9.2-2.6
		s-7.1,0.9-9.1,2.6c-2,1.8-3.1,4.6-3.2,8.4c-0.3,8-0.5,16.3-0.6,24.9s-0.2,17.4-0.2,26.3c0,8.9,0.1,17.7,0.2,26.4s0.3,17.1,0.6,25.2
		c0.1,3.9,1.2,6.7,3.2,8.5C457.5,238.6,460.5,239.5,464.5,239.5z"/>
	<path class="st0" d="M552,255.3V98.5h32.4c11.9,0,20.5,2.6,25.7,7.7c5.3,5.1,8,13.6,8.3,25.4c0.2,10.8,0.3,21,0.4,30.7
		c0.1,9.7,0.1,19.4,0,29.1c-0.1,9.7-0.2,19.9-0.4,30.6c-0.3,11.9-3,20.4-8.3,25.6c-5.3,5.2-13.9,7.7-25.8,7.7H552z M573.1,236.5
		h11.2c4.3,0,7.5-1,9.6-3s3.2-5,3.2-9.1c0.2-8,0.3-15.9,0.4-23.8c0.1-7.9,0.1-15.8,0.1-23.8s0-15.9-0.1-23.8
		c-0.1-7.9-0.2-15.9-0.4-23.9c-0.1-4-1.1-7-3.2-8.9c-2.1-2-5.3-2.9-9.5-2.9h-11.3V236.5z"/>
	<path class="st0" d="M623.6,255.3l21.2-80.8l-20.4-76h20.8l8.5,36.8l4,30.7h3.9l3.8-30.7l8.3-36.8h20.8l-19.6,76.7l20.3,80.1h-20.7
		l-8.9-38.7l-4-31.8h-3.9l-4.1,31.8l-9.2,38.7L623.6,255.3L623.6,255.3z"/>
</g>
<g>
	<path class="st0" d="M14.6,407.6v-48h7.7c2.8,0,4.8,0.6,6,1.9c1.2,1.2,1.9,3.3,1.9,6.1c0.1,3.8,0.1,7.4,0.1,10.9
		c0,3.4,0,6.9,0,10.3s-0.1,7-0.1,10.9c0,2.9-0.7,4.9-1.9,6.1c-1.2,1.2-3.2,1.9-6,1.9L14.6,407.6L14.6,407.6z M18.5,404h3.7
		c1.4,0,2.4-0.3,3-1c0.6-0.6,1-1.7,1-3.1c0-2.7,0.1-5.5,0.1-8.2s0-5.5,0-8.2s0-5.5,0-8.2s-0.1-5.5-0.1-8.2c0-1.4-0.3-2.4-1-3
		s-1.6-0.9-3-0.9h-3.7V404z"/>
	<path class="st0" d="M34.5,407.6l5.4-24.5l-5.1-23.5h3.9l2.2,11.3l1.6,10.6h1.2l1.7-10.6l2.1-11.3h3.9l-5,23.7l5.2,24.3h-3.9
		l-2.3-11.9l-1.7-10.6h-1.2l-1.7,10.6l-2.3,11.9H34.5z"/>
	<path class="st0" d="M77.3,408c-2.8,0-4.7-0.6-5.9-1.8c-1.2-1.2-1.8-3.2-1.8-6c-0.1-2.8-0.1-5.6-0.1-8.4s0-5.5,0-8.2s0-5.5,0-8.2
		s0.1-5.5,0.1-8.4c0-2.6,0.7-4.6,1.9-5.9c1.2-1.3,3.2-2,5.8-2c2.7,0,4.7,0.6,5.9,1.8c1.2,1.2,1.9,3.2,2,6.1c0,0.7,0,1.7,0,2.9
		c0,1.2,0,2.3,0,3.5s0,2.1-0.1,2.9h-4c0-1,0-2.1,0-3.2s0-2.2,0-3.4c0-1.1,0-2.2,0-3.2c0-1.4-0.3-2.4-0.9-3s-1.6-0.9-3-0.9
		c-1.3,0-2.2,0.3-2.8,0.9s-0.9,1.6-0.9,3c-0.1,3-0.1,5.9-0.2,8.7c0,2.8,0,5.6,0,8.4s0,5.6,0,8.4s0.1,5.7,0.2,8.7
		c0,1.4,0.4,2.4,0.9,3c0.6,0.6,1.5,0.9,2.8,0.9c1.4,0,2.5-0.3,3.1-0.9s1-1.6,1-3c0-1.1,0-2.2,0-3.4s0-2.4,0-3.6s0-2.3-0.1-3.4h4
		c0.1,1.7,0.1,3.3,0.1,4.9s0,3.2,0,4.9c-0.1,2.8-0.8,4.8-2,6S80.1,408,77.3,408z"/>
	<path class="st0" d="M91.7,407.6v-48h13.6v3.6h-9.6v18.4h9v3.6h-9V404h9.6v3.6H91.7z"/>
	<path class="st0" d="M110.7,407.6v-48h7.3c2.7,0,4.7,0.6,5.9,1.8c1.2,1.2,1.9,3.2,2,6c0.1,1.8,0.1,3.5,0.2,5.1c0,1.6,0,3.1,0,4.6
		s-0.1,3-0.2,4.5c-0.1,1.9-0.4,3.5-1,4.6c-0.6,1.2-1.6,2-2.9,2.5l4.9,19h-4.2l-4.4-18.3h-3.5v18.3h-4.1V407.6z M114.7,385.7h3.3
		c1.4,0,2.4-0.3,3-1c0.6-0.6,1-1.6,1-3c0.1-1.6,0.1-3.2,0.1-4.8c0-1.6,0-3.3,0-4.9s-0.1-3.2-0.1-4.8c-0.1-1.4-0.4-2.4-1-3
		s-1.6-0.9-3-0.9h-3.3V385.7z"/>
	<path class="st0" d="M135.7,407.6v-44.4h-6.1v-3.6h16.2v3.6h-6.1v44.4H135.7z"/>
	<path class="st0" d="M150.2,407.6v-48h4v48H150.2z"/>
	<path class="st0" d="M161.4,407.6v-48H175v3.6h-9.6v18.4h9v3.6h-9v22.4H161.4z"/>
	<path class="st0" d="M180,407.6v-48h4v48H180z"/>
	<path class="st0" d="M198.7,408c-2.8,0-4.7-0.6-5.9-1.8c-1.2-1.2-1.8-3.2-1.8-6c-0.1-2.8-0.1-5.6-0.1-8.4s0-5.5,0-8.2s0-5.5,0-8.2
		s0.1-5.5,0.1-8.4c0-2.6,0.7-4.6,1.9-5.9s3.2-2,5.8-2c2.7,0,4.7,0.6,5.9,1.8c1.2,1.2,1.9,3.2,2,6.1c0,0.7,0,1.7,0,2.9
		c0,1.2,0,2.3,0,3.5s0,2.1-0.1,2.9h-4c0-1,0-2.1,0-3.2s0-2.2,0-3.4c0-1.1,0-2.2,0-3.2c0-1.4-0.3-2.4-0.9-3c-0.6-0.6-1.6-0.9-3-0.9
		c-1.3,0-2.2,0.3-2.8,0.9s-0.9,1.6-0.9,3c-0.1,3-0.1,5.9-0.2,8.7c0,2.8,0,5.6,0,8.4s0,5.6,0,8.4s0.1,5.7,0.2,8.7
		c0,1.4,0.4,2.4,0.9,3c0.6,0.6,1.5,0.9,2.8,0.9c1.4,0,2.5-0.3,3.1-0.9s1-1.6,1-3c0-1.1,0-2.2,0-3.4s0-2.4,0-3.6s0-2.3-0.1-3.4h4
		c0.1,1.7,0.1,3.3,0.1,4.9s0,3.2,0,4.9c-0.1,2.8-0.8,4.8-2,6S201.5,408,198.7,408z"/>
	<path class="st0" d="M211.2,407.6l5.1-48h7.4l5.1,48h-4.1l-1.2-13.9h-7l-1.3,13.9H211.2z M216.9,390.1h6.3l-1-10.5l-1.4-16.4h-1.7
		l-1.3,16.4L216.9,390.1z"/>
	<path class="st0" d="M235.9,407.6v-44.4h-6.1v-3.6H246v3.6h-6.1v44.4H235.9z"/>
	<path class="st0" d="M250.3,407.6v-48h4v48H250.3z"/>
	<path class="st0" d="M269.2,408c-2.8,0-4.8-0.6-6-1.8c-1.2-1.2-1.8-3.2-1.9-6c-0.1-2.9-0.1-5.7-0.1-8.4c0-2.7,0-5.5,0-8.2
		s0-5.5,0-8.2c0-2.8,0.1-5.6,0.1-8.4s0.7-4.8,1.9-6c1.2-1.2,3.2-1.8,6-1.8s4.8,0.6,6,1.8c1.2,1.2,1.8,3.2,1.9,6
		c0.1,2.9,0.1,5.7,0.1,8.4s0,5.5,0,8.2s0,5.5,0,8.2s-0.1,5.5-0.1,8.4c0,2.8-0.7,4.7-1.9,6C274,407.4,272,408,269.2,408z
		 M269.2,404.6c1.4,0,2.3-0.3,2.9-0.9s0.9-1.5,0.9-2.9c0.1-3,0.2-5.9,0.2-8.8s0-5.8,0-8.6c0-2.9,0-5.7-0.1-8.5s-0.1-5.7-0.2-8.5
		c0-1.4-0.3-2.4-0.9-3s-1.6-0.9-2.9-0.9c-1.4,0-2.4,0.3-3,0.9s-0.9,1.6-1,3c-0.1,2.8-0.1,5.7-0.2,8.5s-0.1,5.7-0.1,8.5
		c0,2.9,0,5.7,0.1,8.6c0,2.9,0.1,5.8,0.2,8.8c0,1.4,0.4,2.4,1,2.9C266.9,404.3,267.9,404.6,269.2,404.6z"/>
	<path class="st0" d="M284,407.6v-48h6.8l2.7,15.2l4.1,29.2h1.3l-0.7-27.4l-0.2-17h3.9v48h-7l-3-17.2l-3.5-27.2H287l0.6,26.5l0.3,18
		H284V407.6z"/>
	<path class="st0" d="M330.8,408c-2.8,0-4.8-0.6-6-1.9c-1.2-1.2-1.9-3.2-2-6c0-1.8-0.1-3.3,0-4.5s0-2.3,0.1-3.2
		c0.1-0.9,0.2-1.9,0.3-2.9c0.1-1.7,0.6-3.1,1.3-4.3c0.7-1.1,1.5-2.2,2.4-3.2c-1-2.6-1.9-5.2-2.5-7.7s-1-4.8-1-7
		c-0.1-2.6,0.4-4.6,1.5-6s3-2.1,5.5-2.1c2.7,0,4.6,0.7,5.7,2s1.7,3.3,1.5,6c-0.1,2.6-0.6,5.1-1.6,7.4s-2.3,4.5-3.9,6.4
		c-0.2,0.2-0.3,0.5-0.5,0.8s-0.4,0.5-0.6,0.8c0.7,1.7,1.5,3.4,2.4,5.1c0.8,1.7,1.7,3.3,2.6,4.9c-0.1-1.4-0.1-2.9-0.3-4.5
		c-0.1-1.6-0.2-3.1-0.4-4.6l3.4-0.1c0.2,1.4,0.3,3,0.4,4.7s0.2,3.5,0.2,5.2s0,3.3,0,4.7c0.9,1.5,1.8,2.8,2.6,4
		c0.8,1.2,1.5,2.3,2.2,3.3l-2.7,2.3c-0.5-0.7-1-1.4-1.5-2.1s-1-1.5-1.6-2.3c-0.3,1.1-0.8,2-1.5,2.7c-0.6,0.7-1.5,1.2-2.5,1.5
		C333.5,407.8,332.3,408,330.8,408z M330.9,404.5c1.3,0,2.3-0.2,3-0.6c0.6-0.4,1.1-1.1,1.3-1.9c0.2-0.8,0.3-1.9,0.4-3.2
		c-1.2-2-2.4-4-3.6-6.2s-2.3-4.3-3.3-6.6c-0.3,0.5-0.7,1.1-1,1.7s-0.5,1.3-0.6,2c-0.2,0.8-0.3,1.7-0.3,2.6s-0.1,1.9-0.1,3.2
		c0,1.2,0,2.8,0,4.7c0,1.5,0.4,2.6,1.1,3.3S329.5,404.5,330.9,404.5z M329.6,378.9c1-1.3,1.9-2.7,2.5-3.9c0.7-1.3,1.2-2.6,1.5-3.9
		s0.5-2.6,0.5-3.9c0.1-1.7-0.1-3-0.6-3.7c-0.6-0.8-1.6-1.2-3.1-1.2c-1.3,0-2.2,0.4-2.7,1.1c-0.5,0.8-0.8,1.9-0.8,3.4
		c0,1.8,0.2,3.7,0.7,5.7C328.2,374.6,328.8,376.7,329.6,378.9z"/>
	<path class="st0" d="M372,408c-2.7,0-4.7-0.6-5.9-1.9c-1.2-1.2-1.9-3.3-2-6.1c0-1.2-0.1-2.4-0.1-3.4s0-2,0-3.1c0-1,0.1-2.2,0.1-3.4
		h3.8c-0.1,1.8-0.1,3.6-0.1,5.3c0,1.8,0,3.5,0.1,5.2c0.1,1.4,0.4,2.4,1,3s1.6,0.9,3,0.9c1.3,0,2.3-0.3,2.9-0.9s0.9-1.6,1-3
		c0-1.1,0.1-2.1,0.1-3s0-1.8,0-2.7c0-0.9,0-2-0.1-3.3c-0.1-1.5-0.3-2.8-0.6-3.8c-0.4-1-1.1-1.7-2.3-2l-3.1-0.8
		c-1.5-0.4-2.7-1-3.5-1.7c-0.8-0.8-1.4-1.8-1.7-3c-0.3-1.3-0.5-2.8-0.6-4.7c0-1.3,0-2.7,0-4.2s0-3,0-4.5c0.1-1.9,0.3-3.4,0.9-4.5
		c0.5-1.1,1.4-2,2.5-2.5s2.7-0.8,4.6-0.8c2.6,0,4.6,0.6,5.7,1.8c1.2,1.2,1.8,3.2,1.9,6.1c0,1.1,0.1,2.4,0.1,4s0,3.3-0.1,5.1h-3.9
		c0.1-1.6,0.1-3.3,0.1-4.9s0-3.3-0.1-4.9c-0.1-1.4-0.4-2.4-1-3s-1.6-0.9-2.8-0.9c-1.3,0-2.3,0.3-2.9,0.9s-0.9,1.6-1,3
		c-0.1,1.5-0.1,3.1-0.1,4.6c0,1.6,0,3.1,0.1,4.6c0.1,1.8,0.3,3.1,0.6,4s1.2,1.5,2.4,1.8l2.9,0.7c1.6,0.4,2.8,1,3.6,1.8
		c0.8,0.8,1.4,1.8,1.7,3.1c0.3,1.3,0.5,2.8,0.6,4.6c0,1.2,0.1,2.3,0,3.1s0,1.7,0,2.5s0,1.7-0.1,2.8c-0.1,2.8-0.7,4.8-1.9,6.1
		C376.6,407.4,374.7,408,372,408z"/>
	<path class="st0" d="M384.4,407.6l5.1-48h7.4l5.1,48h-4.1l-1.2-13.9h-7l-1.3,13.9H384.4z M390.1,390.1h6.3l-1-10.5l-1.4-16.4h-1.7
		l-1.3,16.4L390.1,390.1z"/>
	<path class="st0" d="M407.4,407.6v-48h4V404h9.6v3.6H407.4z"/>
	<path class="st0" d="M425.7,407.6v-48h13.6v3.6h-9.6v18.4h9v3.6h-9V404h9.6v3.6H425.7z"/>
	<path class="st0" d="M451.8,408c-2.7,0-4.7-0.6-5.9-1.9c-1.2-1.2-1.9-3.3-2-6.1c0-1.2-0.1-2.4-0.1-3.4s0-2,0-3.1
		c0-1,0.1-2.2,0.1-3.4h3.8c-0.1,1.8-0.1,3.6-0.1,5.3c0,1.8,0,3.5,0.1,5.2c0.1,1.4,0.4,2.4,1,3s1.6,0.9,3,0.9c1.3,0,2.3-0.3,2.9-0.9
		s0.9-1.6,1-3c0-1.1,0.1-2.1,0.1-3s0-1.8,0-2.7c0-0.9,0-2-0.1-3.3c-0.1-1.5-0.3-2.8-0.6-3.8c-0.4-1-1.1-1.7-2.3-2l-3.1-0.8
		c-1.5-0.4-2.7-1-3.5-1.7c-0.8-0.8-1.4-1.8-1.7-3c-0.3-1.3-0.5-2.8-0.6-4.7c0-1.3,0-2.7,0-4.2s0-3,0-4.5c0.1-1.9,0.3-3.4,0.9-4.5
		c0.5-1.1,1.4-2,2.5-2.5s2.7-0.8,4.6-0.8c2.6,0,4.6,0.6,5.7,1.8c1.2,1.2,1.8,3.2,1.9,6.1c0,1.1,0.1,2.4,0.1,4s0,3.3-0.1,5.1h-3.9
		c0.1-1.6,0.1-3.3,0.1-4.9s0-3.3-0.1-4.9c-0.1-1.4-0.4-2.4-1-3s-1.6-0.9-2.8-0.9c-1.3,0-2.3,0.3-2.9,0.9s-0.9,1.6-1,3
		c-0.1,1.5-0.1,3.1-0.1,4.6c0,1.6,0,3.1,0.1,4.6c0.1,1.8,0.3,3.1,0.6,4s1.2,1.5,2.4,1.8l2.9,0.7c1.6,0.4,2.8,1,3.6,1.8
		c0.8,0.8,1.4,1.8,1.7,3.1c0.3,1.3,0.5,2.8,0.6,4.6c0,1.2,0.1,2.3,0,3.1s0,1.7,0,2.5s0,1.7-0.1,2.8c-0.1,2.8-0.7,4.8-1.9,6.1
		C456.5,407.4,454.5,408,451.8,408z"/>
	<path class="st0" d="M479.4,407.6v-48H493v3.6h-9.6v18.4h9v3.6h-9V404h9.6v3.6H479.4z"/>
	<path class="st0" d="M498.3,407.6v-48h6.8l2.7,15.2l4.1,29.2h1.3l-0.7-27.4l-0.2-17h3.9v48h-7l-3-17.2l-3.5-27.2h-1.4l0.6,26.5
		l0.3,18h-3.9V407.6z"/>
	<path class="st0" d="M521.6,407.6l5.1-48h7.4l5.1,48h-4.1l-1.2-13.9h-7l-1.3,13.9H521.6z M527.3,390.1h6.3l-1-10.5l-1.4-16.4h-1.7
		l-1.3,16.4L527.3,390.1z"/>
	<path class="st0" d="M544.6,407.6v-48h7.2c2.7,0,4.7,0.6,6,1.8c1.2,1.2,1.9,3.2,1.9,6c0,2,0.1,3.8,0.1,5.2s0,3-0.1,4.4
		c-0.1,1.7-0.4,3-1,3.9s-1.5,1.6-2.7,2.1v1.1c1.3,0.4,2.2,1.1,2.7,2.1c0.6,1,0.9,2.3,0.9,3.9c0,1.8,0.1,3.4,0.1,4.9s0,3.1-0.1,4.9
		c-0.1,2.8-0.8,4.7-2,6c-1.2,1.2-3.2,1.8-6,1.8L544.6,407.6L544.6,407.6z M548.6,381.6h3.1c1.3,0,2.3-0.4,3-1.2c0.6-0.8,1-2,1-3.6
		c0.1-1.7,0.1-3.3,0.1-4.9c0-1.5,0-3.1-0.1-4.8c0-1.4-0.3-2.4-1-3c-0.6-0.6-1.6-0.9-2.9-0.9h-3.2L548.6,381.6L548.6,381.6z
		 M548.6,404h3.2c1.3,0,2.3-0.3,3-1c0.6-0.7,1-1.7,1-3.2c0-1.7,0.1-3.3,0.1-4.8s0-3.1-0.1-4.8c0-1.8-0.4-3.1-1-3.9
		c-0.7-0.8-1.7-1.1-3.1-1.1h-3V404H548.6z"/>
	<path class="st0" d="M566.3,407.6v-48h4V404h9.6v3.6H566.3z"/>
	<path class="st0" d="M584.6,407.6v-48h13.6v3.6h-9.6v18.4h9v3.6h-9V404h9.6v3.6H584.6z"/>
	<path class="st0" d="M603.6,407.6v-48h7.3l2.9,19.6l1.9,24.6h1.1l1.9-24.6l2.9-19.6h7.3v48h-4v-14l0.7-30.4h-1.4l-3.2,30.6
		l-2.2,13.6h-5.3l-2.1-13.6l-3.2-30.6h-1.3l0.7,30.4v14H603.6z"/>
	<path class="st0" d="M636.2,407.6v-48h13.6v3.6h-9.6v18.4h9v3.6h-9V404h9.6v3.6H636.2z"/>
	<path class="st0" d="M655.2,407.6v-48h6.8l2.7,15.2l4.1,29.2h1.3l-0.7-27.4l-0.2-17h3.9v48h-7l-3-17.2l-3.5-27.2h-1.4l0.6,26.5
		l0.3,18h-3.9V407.6z"/>
	<path class="st0" d="M683.5,407.6v-44.4h-6.1v-3.6h16.2v3.6h-6.1v44.4H683.5z"/>
</g>
</svg>
